<svg xmlns="http://www.w3.org/2000/svg" xmlns:vectornator="http://vectornator.io" xml:space="preserve" stroke-linecap="round" stroke-linejoin="round" stroke-miterlimit="10" clip-rule="evenodd" viewBox="0 0 842 595.35">
  <defs>
    <linearGradient id="a" x1="173.95" x2="596.58" y1="304.67" y2="304.67" gradientUnits="userSpaceOnUse">
      <stop offset="0" stop-color="#f16be6"/>
      <stop offset=".75" stop-color="#e2077b"/>
    </linearGradient>
    <linearGradient id="b" x1="272.84" x2="418.5" y1="434.6" y2="434.6" gradientUnits="userSpaceOnUse">
      <stop offset="0" stop-color="#f16be6"/>
      <stop offset=".75" stop-color="#e2077b"/>
    </linearGradient>
  </defs>
  <g vectornator:layerName="Layer 1">
    <path fill="url(#a)" d="M532.56 153.63c-2.7 0-5.65.48-8.84 1.46a35 35 0 0 0-9.9 5.16c-2.5 1.79-8.47 4.82-13.32 7.06l.22.03-2.5 1c-.83.36-2.2 1.07-2.75 1.25l-2.56.85c-.57.22-.92.38-1.38.56-6.13 2.45-22.36 8.73-26.28 9.47-3.92.73-9.94 1.1-18.03 1.1-8.1 0-18.27-.6-30.53-1.82-12.26-1.23-23.06-1.49-32.38-.75-9.32.74-17.28 1.84-23.9 3.31-6.63 1.47-15.83 4.3-27.6 8.47l-17.65 6.25 5.9-4.44c3.93-2.94 10.04-5.6 18.38-8.06 8.33-2.45 13.38-4.43 15.1-5.9 1.7-1.48 3.53-4.4 5.5-8.82 1.95-4.41 2.83-7.24 2.58-8.47-.24-1.22-1.74-2.59-4.43-4.06a21.07 21.07 0 0 0-8.44-2.56c-2.94-.25-7.5.37-13.63 1.84a132.92 132.92 0 0 0-18.37 5.88c-6.13 2.45-16.08 7.98-29.81 16.56-12.36 7.72-25.81 16.18-32.22 19.28-4.79 3.4-13.82 9.6-17.06 11.97-7.36 5.4-14.97 12.39-22.82 20.97a184.4 184.4 0 0 1-26.12 23.56c-9.56 7.11-14.57 11.15-15.06 12.13-.5.98-.62 2.57-.38 4.78.25 2.2 1.48 4.68 3.69 7.37 2.2 2.7 6.1 4.78 11.75 6.25 5.64 1.47 9.09 2.19 10.31 2.19 1.23 0 3.67-1.7 7.34-5.13l5.54-5.15-5.16 8.81c-3.43 5.89-5.03 10.67-4.78 14.35a41.54 41.54 0 0 0 2.94 12.15c1.71 4.42 9.1 9.2 22.09 14.35a251.3 251.3 0 0 1 34.56 16.56 291.4 291.4 0 0 1 28.69 19.12c9.07 6.87 14.34 11.39 15.81 13.6a14.95 14.95 0 0 1 2.6 6.62l.34 3.31-1.47-2.56c-.98-1.72-3.68-4.67-8.1-8.84-4.4-4.17-10.3-8.82-17.65-13.97a315.16 315.16 0 0 0-26.84-16.56 225.32 225.32 0 0 0-30.53-14.35c-9.81-3.68-18.53-5.76-26.13-6.25-7.6-.49-12.97-.26-16.16.72-3.18.98-5.65 2.58-7.37 4.78-1.72 2.21-2.2 5.43-1.47 9.6.74 4.16 2.82 8.94 6.25 14.34s7.5 10.66 12.16 15.81 9.8 9.8 15.44 13.97a142.45 142.45 0 0 0 15.09 9.94 49.43 49.43 0 0 1 11.03 8.1c2.94 2.94 4.76 4.14 5.5 3.65.74-.5 2.33.03 4.78 1.5s3.95 2.06 4.44 1.81l.72-.34c-3.07-1.96-6.13-3.95-9.19-5.9-6.13-3.93-14.23-10.44-24.28-19.5-10.06-9.08-15.81-13.86-17.28-14.35-1.47-.5-2.35-.98-2.6-1.47l-.34-.72h2.19c1.47 0 3.45.62 5.9 1.84 2.46 1.23 8.44 6.1 18 14.7a201.05 201.05 0 0 0 30.91 22.8c11.04 6.63 18.87 10.56 23.53 11.79 4.66 1.22 14.74 2.46 30.19 3.68 15.45 1.23 25 .74 28.69-1.47 3.67-2.2 6.11-4.8 7.34-7.75 1.23-2.94 1.49-7.82.75-14.68-.74-6.87-3.08-13.76-7-20.63-3.92-6.86-9.32-13.95-16.19-21.31a158.77 158.77 0 0 0-20.6-18.78 343.06 343.06 0 0 0-23.18-15.81 288.56 288.56 0 0 0-27.22-15.07l-14.34-7 3.69.38c2.45.24 5.63 1.09 9.56 2.56 3.92 1.47 11.27 5.28 22.06 11.4a303.79 303.79 0 0 1 30.16 19.5c9.32 6.87 16.7 13.25 22.1 19.13 5.39 5.89 14.82 8.33 28.3 7.35 13.5-.99 20.35-2.32 20.6-4.04a17.5 17.5 0 0 1 2.22-5.87c1.22-2.2 4.54-6.01 9.93-11.4 5.4-5.4 8.94-9.34 10.66-11.79.86-1.22 1.7-2.46 2.56-3.69-.24 1.23-.47 2.47-.72 3.7a19.68 19.68 0 0 1-2.59 6.62c-1.23 1.96-4.51 5.9-9.9 11.78-5.4 5.88-8.59 10.66-9.57 14.34l-1.47 5.5.72 2.22 1.85 2.94c1.22 1.96 2.46 5.9 3.68 11.78 1.23 5.88 3.31 12.74 6.25 20.6 2.95 7.84 6 13.72 9.19 17.65a63.4 63.4 0 0 0 9.94 9.94c3.43 2.7 15.43 8.06 36.03 16.15 20.6 8.1 34.1 11.8 40.47 11.06 5.1-.58 12.87-.56 12.87-.56s8.36-.15 10.31-.56c4.66-.98 7.72-2.19 9.2-3.66 1.46-1.47 2.08-2.7 1.84-3.68-.25-.99-1.84-1.6-4.78-1.85-2.95-.24-5.42.02-7.38.75-1.96.74-3.3.84-4.03.35-.74-.5-3.57-.6-8.47-.35s-9.91-1.25-15.06-4.44c-2.58-1.59-5.18-3.18-7.75-4.78l5.15.38c3.44.24 5.52-.37 6.25-1.85l1.13-2.18-3.31-.38c-2.21-.24-3.45-.6-3.7-1.1l-.37-.74 10.32-.38c6.86-.24 15.58-1.83 26.12-4.78 10.55-2.94 18.74-4.05 24.63-3.31 5.88.74 9.46.6 10.68-.38 1.23-.98 1.95-2.93 1.1-4.4-.65-1.12-.68-1.15-1.97-2.35-1.3-1.19-2.26-1.62-3.19-2.43a9.34 9.34 0 0 0-6.25-2.56c-2.2 0-4.29.61-6.25 1.84-1.96 1.22-4.79 1.94-8.47 2.19-3.68.24-8.94 1.35-15.81 3.3-6.87 1.97-12.52 2.95-16.94 2.95-4.41 0-8.93-.5-13.6-1.47-4.65-.98-8.45-1.21-11.4-.72-2.94.49-5.77.36-8.47-.38l-4.03-1.09 1.47-.75c.54-.27 3.69-.42 8.44-.47.25-.67.65-1.51 1.6-2.94a50.58 50.58 0 0 1 6.15-7.62 113.4 113.4 0 0 1 7.34-6.63 43.08 43.08 0 0 1 8.1-5.5c2.45-1.22 3.68-2.59 3.68-4.06 0-1.47-.74-3.06-2.21-4.78a12.16 12.16 0 0 0-5.5-3.69c-2.21-.73-3.69-1.12-6.25-.72-1.13.18-2.3.57-2.97 1.91-.99 1.95-.98 4.4-1.1 5.81a16.04 16.04 0 0 1-2.56 7.72c-1.47 2.2-4.43 5.04-8.84 8.47-4.42 3.43-8.1 5.16-11.04 5.16h-4.4l2.22 2.56c1.47 1.71 2.06 2.82 1.81 3.31l-.34.75-5.16-4.06c-3.43-2.7-6.49-7.12-9.19-13.25-2.7-6.13-6.5-13.12-11.4-20.97s-8-12.24-9.22-13.22c-1.23-.98-2.2-2.96-2.94-5.9a12.9 12.9 0 0 1 .38-8.1c.98-2.45 5.4-7.33 13.25-14.69 3.92-3.67 7.82-7.38 11.75-11.06l.37.75c.25.5-.11 1.6-1.1 3.31-.98 1.72-3.67 4.78-8.09 9.2-2.2 2.2-4.42 4.4-6.62 6.62l.75.37c.49.25 4.88-2.1 13.22-7 8.33-4.9 17.8-11.9 28.34-20.97a138.01 138.01 0 0 1 35.31-22.06c13-5.64 20.97-9.31 23.9-11.03 1.48-.86 2.94-1.74 4.41-2.6H516l2.6-1.8c1.71-1.23 6.49-3.31 14.34-6.26a253.37 253.37 0 0 0 24.25-10.69c8.34-4.16 15.46-8.68 21.34-13.59 5.89-4.9 9.56-8.35 11.03-10.31 1.47-1.96 2.97-4.8 4.44-8.47 1.47-3.68 2.32-6.6 2.56-8.81.25-2.2-1.6-7.12-5.53-14.72-3.92-7.6-9.55-13-16.9-16.19-7.36-3.19-12.01-5.75-13.97-7.72-1.96-1.96-4.8-5.9-8.47-11.78-3.68-5.88-7.13-10.18-10.32-12.87-3.18-2.7-6.11-4.03-8.8-4.03ZM319.6 168.34l.72.72L317 172c-2.2 1.96-10.17 7.85-23.9 17.66-13.74 9.8-22.68 16.93-26.85 21.34a141.9 141.9 0 0 0-12.5 15.44c-4.17 5.88-6.77 9.07-7.75 9.56l-1.47.75 5.53-8.84a138.36 138.36 0 0 1 11.4-15.82c3.93-4.66 11.64-11.65 23.17-20.97 11.52-9.31 20.1-15.56 25.75-18.75 5.63-3.18 8.72-4.52 9.21-4.03Zm112.54 33.1c6.37 0 11.41.36 15.09 1.1 1.84.36 3.7.75 5.53 1.12l-.75.72c-.5.49-10.4.97-29.78 1.46-19.37.5-35.93 1.47-49.66 2.94L351.94 211l15.1-3.31c10.04-2.21 21.82-3.8 35.3-4.78 13.5-.98 23.4-1.47 29.79-1.47Zm-138.29 8.1.72.71-3.69 3.31c-2.45 2.2-11.03 8.35-25.75 18.4-14.7 10.06-24.14 16.2-28.3 18.41a33.64 33.64 0 0 0-10.66 8.82c-2.95 3.68-4.67 6.25-5.16 7.72-.49 1.47-.98 2.21-1.47 2.21h-.75l1.84-5.9c1.23-3.93 2.95-7.11 5.16-9.56 2.2-2.46 5.75-4.9 10.66-7.35 4.9-2.45 12.51-7.59 22.81-15.44 10.3-7.84 18.53-13.5 24.66-16.93 6.13-3.44 9.44-4.9 9.93-4.4Zm226.22 13.24c3.68 0 6.38.36 8.1 1.1 1.71.73 3.05 1.48 4.03 2.21.98.74 1.47 2.2 1.47 4.41v3.31l-1.85-2.22c-1.22-1.47-3.43-2.18-6.62-2.18s-6.25.48-9.19 1.47c-2.94.98-5.87 2.93-8.81 5.87-2.94 2.94-4.18 5.64-3.69 8.1.5 2.45 2.44 4.3 5.88 5.53 3.43 1.22 6.13 1.7 8.09 1.46s4.43-1.48 7.37-3.68c2.95-2.21 4.9-4.78 5.88-7.72l1.47-4.44.37 2.22c.25 1.47-.01 3.42-.75 5.87a18.54 18.54 0 0 1-4.03 7 20.26 20.26 0 0 1-5.9 4.78c-1.97.99-4.54 1.47-7.72 1.47-3.2 0-7.1-1.33-11.75-4.03-4.66-2.7-7.13-5.3-7.38-7.75-.24-2.45.37-5.25 1.85-8.44 1.47-3.18 2.93-5.52 4.4-7 1.47-1.47 4.07-3.06 7.75-4.78a25.86 25.86 0 0 1 11.03-2.56Z"/>
    <path fill="url(#b)" d="M346.9 412.47a19.7 19.7 0 0 1-2.71 5.06 22.68 22.68 0 0 1-8.44 7 24.33 24.33 0 0 1-10.31 2.22c-3.68 0-7.1-.62-10.28-1.84-3.2-1.23-8.72-1.85-16.57-1.85-7.84 0-14.09-.49-18.75-1.47l-7-1.46 5.5 2.93c3.68 1.96 9.96 4.05 18.79 6.25a192.44 192.44 0 0 1 28.68 9.94c10.3 4.41 16.9 7.47 19.85 9.19a29.12 29.12 0 0 1 5.4 4.25l2.19 1.84s2.56 1.02 4.13 1.47c3.43.98 6.26.98 8.46 0 2.21-.98 3.32-2.8 3.32-5.5s-.36-4.42-1.1-5.16c-.73-.73-2.94-1.22-6.62-1.46-3.68-.25-7-1-9.94-2.22-2.94-1.23-5.56-2.75-9.97-5.94-4.41-3.19-6.75-5.17-7-5.9l-.37-1.1 11.78 5.87c7.85 3.93 13.06 5.97 17.72 7.44 4.47 1.42 7.31 3.16 8.62 5.25.11-.07 1.54-1.07 3.19-1.78 1.72-.74 4.15-1.1 7.34-1.1 3.19 0 6.15.36 8.85 1.1 2.7.74 5.26 2.2 7.71 4.4 2.46 2.21 4.4 3.45 5.88 3.7 1.47.24 3.55-.38 6.25-1.85 2.7-1.47 4.55-3.42 5.53-5.88.98-2.45 1.47-4.04 1.47-4.78 0-.73-.36-1.35-1.1-1.84-.73-.49-2.71-1.34-5.9-2.56-.53-.2-1.01-.5-1.53-.72-.17.2-.37.43-1.03.87-1.63 1.1-2.8 1.43-5.5 2.41-2.7.98-6.15 1.34-10.31 1.1-4.17-.25-12.63-2.95-25.38-8.1-12.75-5.15-19.74-8.08-20.97-8.81l-1.84-1.13 1.47-.34c.98-.25 3.68.11 8.09 1.1 4.41.97 10.3 3.06 17.66 6.24 7.35 3.19 11.51 4.78 12.5 4.78.98 0 1.95-.84 2.93-2.56.99-1.71 1.24-3.3.75-4.78-.49-1.47-1.72-2.7-3.68-3.69-1.97-.98-3.93-1-5.16-1.25-.48-.1-1.75.5-1.75.5s-.42.3-1.56.75c-1.23.5-3.18.62-5.88.38-2.7-.25-6.24-1.61-10.65-4.06-4.35-2.42-11.82-5.87-12.75-6.91Z"/>
    <path fill="#e2087a" d="M509.19 292.44a193.4 193.4 0 0 1-11.97 5.56c-11.77 4.9-19.6 8.45-23.53 10.66-3.93 2.2-6.63 4.28-8.1 6.25l-2.03 2.71c.53.42 1.04.85 1.28.97.99.5 1.86 1.6 2.6 3.32.73 1.71.96 4.54.72 8.46a43.73 43.73 0 0 1-1.47 9.57 25.81 25.81 0 0 1-3.69 7.34l-2.56 3.69c1.47.73 2.93 1.48 4.4 2.22 2.95 1.47 5.29 2.06 7 1.81 1.72-.25 2.67-.51 3.41-1.25.07-.07.56-.28.66-1.38.2-2.44-.04-5.9-.04-8.4 0-2.7 1.6-6.37 4.79-11.03 3.18-4.66 6.01-7.59 8.46-8.81a14.08 14.08 0 0 1 7.72-1.47l4.07.34-4.41-4.4c-2.94-2.95-5.06-5.39-6.28-7.35-1.23-1.96-1.81-3.46-1.81-4.44v-1.47c2.2 2.09 4.38 4.17 6.59 6.25 4.41 4.17 7.37 7.49 8.84 9.94 1.48 2.45 2.1 3.95 1.85 4.44-.25.49.47 1.46 2.19 2.94.85.73 1.07 1 1.59 1.96.51.96.3 1.34.47 1.88.25.82.84 1.31.84 1.31s1.16.97 3 2.56c3.68 3.2 6.38 6.25 8.1 9.2 1.71 2.93 4.64 6.25 8.8 9.93 4.18 3.68 6.39 7.71 6.63 12.13.25 4.4.74 7.24 1.47 8.46a7.79 7.79 0 0 0 3.31 2.94c.63.32 1.96.66 2.82.97l2.97-.78s1.46-.8 2.68-1.28c1.23-.5 1.95-1.73 2.19-3.69.25-1.96-1.7-4.53-5.88-7.72-4.16-3.19-6.73-6.37-7.71-9.56-.99-3.19-3.81-7.48-8.47-12.88s-7.85-10.53-9.57-15.43l-2.56-7.38c.86.98 1.7 1.96 2.57 2.94 1.71 1.96 3.44 2.97 5.15 2.97 1.72 0 4.06-1.1 7-3.31 2.94-2.21 5.74-2.96 8.44-2.22 2.7.73 4.9 1.97 6.62 3.68 1.72 1.72 3.31 2.57 4.78 2.57 1.48 0 2.58-.72 3.32-2.2.73-1.46-.24-3.44-2.94-5.9-2.7-2.45-7.12-3.56-13.25-3.31s-10.3-.11-12.5-1.1c-2.2-.97-4.65-2.83-7.34-5.52-2.7-2.7-6.64-9.15-9.38-13.88-1.32-2.29-1.7-3.22-1.84-3.81Z"/>
    <path fill="#e937ae" d="M356.78 375.97c-.97-.06-2.05.02-3.25.19-4.11.56-9.4 3.65-9.4 3.65s2.01 3.25 3.06 6.47c1.04 3.22 2.47 7.75 2.47 7.75s2-3.74 6.12-5.69c3.98-1.87 6.75-5.7 6.19-8.75-.42-2.28-2.27-3.45-5.19-3.62Z"/>
  </g>
</svg>
