<svg xmlns="http://www.w3.org/2000/svg" xml:space="preserve" stroke-linecap="round" stroke-linejoin="round" stroke-miterlimit="10" clip-rule="evenodd" viewBox="0 0 1000 1000">
  <defs>
    <linearGradient id="a" x1="173.9" x2="596.6" y1="304.7" y2="304.7" gradientTransform="matrix(2.34777 0 0 2.72796 -405 -333)" gradientUnits="userSpaceOnUse">
      <stop offset="0" stop-color="#f16be6"/>
      <stop offset=".7" stop-color="#e2077b"/>
    </linearGradient>
    <linearGradient id="b" x1="272.8" x2="418.5" y1="434.6" y2="434.6" gradientTransform="matrix(2.34777 0 0 2.72796 -405 -333)" gradientUnits="userSpaceOnUse">
      <stop offset="0" stop-color="#f16be6"/>
      <stop offset=".7" stop-color="#e2077b"/>
    </linearGradient>
  </defs>
  <path fill="url(#a)" d="M846 87c-7 0-13 1-21 4-7 2-15 7-23 14a242 242 0 0 1-31 19l-6 3-6 3-6 2-4 2c-14 7-52 24-61 26s-24 3-43 3-42-2-71-5a372 372 0 0 0-132 7c-16 4-38 12-65 23l-42 17 14-12c9-8 24-15 43-22 20-7 32-12 36-16s8-12 13-24l6-23c-1-4-4-7-11-11-6-4-12-7-19-7-7-1-18 1-32 5a282 282 0 0 0-114 61c-29 21-60 44-75 52l-40 33c-17 15-35 34-54 57-18 24-39 45-61 65-23 19-34 30-35 33-2 2-2 7-1 13 0 6 3 12 8 20 5 7 15 13 28 17l24 6c3 0 9-5 17-14l13-14-12 24c-8 16-12 29-11 39s3 21 7 33 21 25 52 39a562 562 0 0 1 185 135c4 6 6 12 6 18l1 9-3-7a387 387 0 0 0-60-62 731 731 0 0 0-135-85c-23-10-44-16-62-17-17-1-30-1-38 2-7 3-13 7-17 13s-5 15-3 26c1 12 6 25 14 39a322 322 0 0 0 101 109c10 6 19 14 25 22 7 8 12 11 13 10 2-1 6 0 12 4 5 4 9 6 10 5l2-1-22-16c-14-11-33-29-57-53a309 309 0 0 0-47-43v-2h5c3 0 8 1 14 5 5 3 19 16 42 40a484 484 0 0 0 128 94c11 3 34 7 71 10 36 3 58 2 67-4s14-13 17-21 4-21 2-40-7-38-16-56a400 400 0 0 0-86-109 811 811 0 0 0-119-85l-34-19 9 1c6 1 13 3 22 7s27 14 52 31a711 711 0 0 1 123 105c12 16 35 23 66 20 32-2 48-6 49-11 0-4 2-10 5-16s10-16 23-31c13-14 21-25 25-32l6-10-2 10c-1 7-3 13-6 18-3 6-10 16-23 32s-20 29-22 39l-4 15 2 7 4 8c3 5 6 16 9 32a439 439 0 0 0 36 104c8 11 15 20 23 27 8 8 37 22 85 44s80 32 95 30l30-1 24-2c11-2 19-6 22-10s5-7 4-10c0-2-4-4-11-5-7 0-13 0-17 2-5 2-8 3-10 1l-20-1c-11 1-23-3-35-12l-18-13 12 1c8 1 13-1 15-5l2-6-7-1c-6 0-9-1-9-3l-1-2 24-1c16-1 37-5 62-13 24-8 44-11 57-9 14 2 23 2 25-1 3-3 5-8 3-12-1-3-2-3-5-6l-7-7c-5-5-10-7-15-7s-10 2-14 5c-5 3-12 5-20 6-9 1-21 4-37 9-17 5-30 8-40 8-11 0-21-1-32-4s-20-3-27-2-13 1-20-1l-9-3 3-2 20-1 4-8c4-8 10-16 14-21a278 278 0 0 1 36-33c6-4 9-7 9-11s-2-9-5-13c-4-5-8-8-13-10s-9-3-15-2c-2 0-5 1-7 5-2 5-2 12-2 16-1 8-3 15-6 21-4 6-11 14-21 23s-19 14-26 14h-10l5 7c3 5 5 8 4 9l-1 2-12-11c-8-7-15-19-21-36a489 489 0 0 0-49-93c-3-3-5-9-7-17-1-8-1-15 1-22 3-6 13-20 31-40l28-30 1 2c0 1 0 5-3 9-2 5-8 13-19 25l-15 18 2 1a486 486 0 0 0 98-76c24-25 52-45 82-60l56-30 10-7h-15l6-5a771 771 0 0 0 91-46 258 258 0 0 0 76-66c3-5 7-13 10-23 4-10 5-18 6-24s-4-19-13-40-22-35-40-44c-17-9-28-16-32-21-5-6-12-16-20-32-9-16-17-28-24-35-8-8-15-11-21-11Zm-500 40 2 2-8 8-56 48c-33 27-54 46-63 58-10 12-20 26-30 42s-16 25-18 26l-3 2 13-24c8-16 17-30 26-43 10-13 28-32 55-57 27-26 47-43 60-51 13-9 21-13 22-11Zm264 90c15 0 27 1 35 3l13 3-1 2c-1 1-25 3-70 4-46 1-85 4-117 8l-48 6 35-9a922 922 0 0 1 153-17Zm-325 22 2 2-9 9c-5 6-26 23-60 50-35 28-57 44-67 50-9 7-18 14-25 25-6 10-11 17-12 21l-3 6h-2l4-16c3-11 7-20 13-27 5-6 13-13 25-20 11-6 29-20 53-42 24-21 44-37 58-46s22-13 23-12Zm531 36c9 0 15 1 19 3l10 6c2 2 3 6 3 12v9l-4-6c-3-4-8-6-15-6-8 0-15 2-22 4-7 3-14 8-21 16s-10 16-8 22c1 7 5 12 13 15 8 4 15 5 19 5 5-1 11-5 18-11s11-13 13-21l4-12 1 6c0 4 0 10-2 16a54 54 0 0 1-23 32c-5 3-11 5-18 5-8 0-17-4-28-11-11-8-17-15-17-22-1-6 1-14 4-23 3-8 7-15 10-19 4-4 10-8 19-13 8-4 17-7 25-7Z"/>
  <path fill="url(#b)" d="M410 793a57 57 0 0 1-26 33c-8 4-16 6-24 6-9 0-17-2-25-5-7-4-20-5-38-5-19 0-34-2-45-4l-16-4 13 8c9 5 23 11 44 17s43 15 67 27c25 12 40 20 47 25 7 4 13 11 13 11l5 5 10 4c8 3 14 3 19 0 6-2 8-7 8-15l-2-14c-2-2-7-3-16-4-9 0-16-2-23-6-7-3-13-7-24-16-10-9-16-14-16-16l-1-3 28 16c18 11 30 16 41 20s17 9 21 15l7-5c4-2 10-3 17-3 8 0 15 1 21 3s12 6 18 12 10 9 14 10c3 1 8-1 15-5 6-4 10-9 13-16l3-13c0-2-1-4-3-5-1-2-6-4-13-7l-4-2-2 2-13 7c-7 2-15 3-25 3a794 794 0 0 1-109-46l-4-3 4-1c2-1 8 0 19 3 10 2 24 8 41 17 17 8 27 13 30 13 2 0 4-3 6-7 3-5 3-9 2-13s-4-8-8-10c-5-3-10-3-13-4l-4 2-3 2-14 1c-6-1-15-5-25-11-10-7-28-16-30-19Z"/>
  <path fill="#e2087a" d="m791 465-28 15c-28 14-46 23-55 29-10 7-16 12-19 18l-5 7 3 3c2 1 4 4 6 9 2 4 2 12 2 23l-4 26c-2 7-4 13-8 20l-7 10 11 6c7 4 12 6 16 5s7-1 8-4c0 0 2 0 2-3v-23c0-8 3-18 11-30 7-13 14-21 20-24 6-4 12-5 18-4l9 1-10-12-15-20-4-13v-4l16 17a138 138 0 0 1 25 40c-1 1 1 4 5 8l4 5 1 5 2 4 7 7c8 8 15 17 19 25s11 17 20 27c10 10 15 21 16 33l3 23 8 8 7 3 7-2 6-4c3-1 5-5 5-10 1-5-4-12-14-21-9-9-15-17-18-26-2-9-9-20-20-35s-18-29-22-42l-6-20 6 8c4 5 8 8 12 8s10-3 17-9c6-6 13-8 19-6 7 2 12 5 16 10 4 4 8 7 11 7 4 0 6-2 8-6s-1-10-7-16c-6-7-17-10-31-9-15 0-24-1-29-3-6-3-11-8-18-16a236 236 0 0 1-26-48Z"/>
  <path fill="#e937ae" d="m433 693-8 1c-9 1-22 10-22 10s5 8 8 17l5 21s5-10 15-15c9-5 16-16 14-24-1-6-5-9-12-10Z"/>
</svg>
