<svg xmlns="http://www.w3.org/2000/svg" xml:space="preserve" stroke-linecap="round" stroke-linejoin="round" stroke-miterlimit="10" clip-rule="evenodd" viewBox="0 0 100 100">
  <path fill="#000000" d="m50 83.0536 24.7179 15.6147c3.9 2.4627 8.7103-1.1976 7.6756-5.8366l-6.5613-29.433 21.8427-19.806c3.4421-3.1187 1.6018-9.0386-2.9349-9.4396l-28.7522-2.5512L54.7406 3.8246c-1.7758-4.3787-7.7054-4.3787-9.4812 0L34.0122 31.602 5.26 34.1531c-4.5367.401-6.3772 6.3209-2.935 9.4396l21.8428 19.806-6.5613 29.433c-1.0347 4.639 3.7756 8.2993 7.6756 5.8366L50 83.0536Z"/>
  <path fill="#ffcb45" d="M50 70.8914V.5406c-1.9251 0-3.8502 1.0933-4.7406 3.2853L34.0122 31.6028 5.26 34.154c-4.5367.4009-6.3772 6.3207-2.935 9.4395l21.8428 19.8057-6.5613 29.4325c-1.0346 4.6391 3.7756 8.2993 7.6756 5.8366L50 83.0539V70.8914Z"/>
</svg>
