<?xml version="1.0" standalone="no"?>
<!DOCTYPE svg PUBLIC "-//W3C//DTD SVG 20010904//EN"
 "http://www.w3.org/TR/2001/REC-SVG-20010904/DTD/svg10.dtd">
<svg version="1.0" xmlns="http://www.w3.org/2000/svg"
 width="700.000000pt" height="700.000000pt" viewBox="0 0 700.000000 700.000000"
 preserveAspectRatio="xMidYMid meet">
<metadata>
Created by potrace 1.14, written by Peter Selinger 2001-2017
</metadata>
<g transform="translate(0.000000,700.000000) scale(0.100000,-0.100000)"
fill="#000000" stroke="none">
<path d="M3205 6990 c-604 -54 -1177 -258 -1674 -597 -376 -256 -691 -575
-946 -958 -305 -458 -484 -939 -561 -1510 -25 -184 -25 -666 0 -850 61 -457
192 -864 397 -1240 749 -1375 2301 -2086 3829 -1754 1193 259 2179 1143 2568
2304 128 382 177 689 177 1115 0 269 -9 383 -46 600 -134 787 -554 1526 -1164
2051 -531 455 -1153 732 -1855 824 -147 19 -575 28 -725 15z m485 -1970 c387
-33 676 -149 907 -365 284 -264 433 -660 433 -1150 0 -812 -399 -1351 -1105
-1494 -172 -35 -303 -41 -860 -41 -602 0 -585 -2 -632 69 l-23 34 0 1419 c0
1515 -2 1457 48 1501 11 10 33 22 48 27 41 12 1045 12 1184 0z"/>
</g>
</svg>
